<svg xmlns="http://www.w3.org/2000/svg" width="1024" height="1024" viewBox="0 0 512 512"><defs><linearGradient id="gradient0" x1="72" y1="42" x2="426" y2="466" gradientUnits="userSpaceOnUse"><stop offset="0%" stop-color="#FCF9F2" stop-opacity="1" /><stop offset="56%" stop-color="#F6F3EC" stop-opacity="1" /><stop offset="100%" stop-color="#E5E2DB" stop-opacity="1" /></linearGradient><linearGradient id="gradient1" x1="48" y1="294" x2="276" y2="430" gradientUnits="userSpaceOnUse"><stop offset="0%" stop-color="#CCEACF" stop-opacity="1" /><stop offset="100%" stop-color="#8DAA91" stop-opacity="1" /></linearGradient><linearGradient id="gradient2" x1="302" y1="68" x2="462" y2="246" gradientUnits="userSpaceOnUse"><stop offset="0%" stop-color="#D4E4F6" stop-opacity="1" /><stop offset="100%" stop-color="#C9E6FD" stop-opacity="1" /></linearGradient><linearGradient id="gradient5" x1="134" y1="126" x2="378" y2="382" gradientUnits="userSpaceOnUse"><stop offset="0%" stop-color="#FFFFFF" stop-opacity="0.94902" /><stop offset="58%" stop-color="#FCF9F2" stop-opacity="0.8" /><stop offset="100%" stop-color="#F1EEE7" stop-opacity="0.6" /></linearGradient><linearGradient id="gradient6" x1="180" y1="112" x2="334" y2="410" gradientUnits="userSpaceOnUse"><stop offset="0%" stop-color="#FFFFFF" stop-opacity="0.933333" /><stop offset="54%" stop-color="#FCF9F2" stop-opacity="0.721569" /><stop offset="100%" stop-color="#D4E4F6" stop-opacity="0.470588" /></linearGradient><linearGradient id="gradient7" x1="232" y1="158" x2="282" y2="292" gradientUnits="userSpaceOnUse"><stop offset="0%" stop-color="#FFFFFF" stop-opacity="1" /><stop offset="55%" stop-color="#F6F3EC" stop-opacity="1" /><stop offset="100%" stop-color="#CCEACF" stop-opacity="1" /></linearGradient><linearGradient id="gradient8" x1="148" y1="390" x2="328" y2="222" gradientUnits="userSpaceOnUse"><stop offset="0%" stop-color="#466275" stop-opacity="1" /><stop offset="100%" stop-color="#C9E6FD" stop-opacity="1" /></linearGradient><linearGradient id="gradient9" x1="150" y1="396" x2="250" y2="214" gradientUnits="userSpaceOnUse"><stop offset="0%" stop-color="#4A654F" stop-opacity="1" /><stop offset="100%" stop-color="#CCEACF" stop-opacity="1" /></linearGradient><linearGradient id="gradient12" x1="292" y1="144" x2="376" y2="146" gradientUnits="userSpaceOnUse"><stop offset="0%" stop-color="#8DAA91" stop-opacity="1" /><stop offset="100%" stop-color="#C9E6FD" stop-opacity="1" /></linearGradient></defs><path d="M256,0A256,256 0,1 1 256,512A256,256 0,1 1 256,0Z" fill="url(#gradient0)" fill-opacity="1" /><path d="M46,346C82,292 154,264 218,292C279,318 292,378 246,424C198,472 112,456 68,414C42,390 36,368 46,346Z" fill="url(#gradient1)" fill-opacity="0.46" /><path d="M310,66C376,42 444,82 462,144C480,210 428,260 368,252C312,244 286,204 300,150C308,116 302,82 310,66Z" fill="url(#gradient2)" fill-opacity="0.4" /><path d="M122,84C166,62 216,82 230,126C244,172 211,204 166,204C122,204 84,180 82,140C80,112 98,96 122,84Z" fill="#FFFFFF" fill-opacity="0.24" /><path d="M256,420m-106,0a106,22 0,1 1,212 0a106,22 0,1 1,-212 0" fill="#50606F" fill-opacity="0.12" /><path d="M256,252m-148,0a148,148 0,1 1,296 0a148,148 0,1 1,-296 0" fill="url(#gradient5)" fill-opacity="0.74" stroke="#FFFFFF" stroke-opacity="0.6" stroke-width="3" /><path d="M256,100C315,100 362,153 362,224C362,315 309,384 256,422C203,384 150,315 150,224C150,153 197,100 256,100Z" fill="url(#gradient6)" fill-opacity="0.7" /><path d="M256,156C290,198 292,249 256,292C220,249 222,198 256,156Z" fill="url(#gradient7)" fill-opacity="0.78" /><path d="M150,342C202,321 257,286 330,218C313,302 255,366 144,394C142,374 143,356 150,342Z" fill="url(#gradient8)" fill-opacity="0.62" /><path d="M164,374C207,337 230,292 250,210C209,251 178,310 148,398C154,390 159,382 164,374Z" fill="url(#gradient9)" fill-opacity="0.66" /><path d="M212,254C234,238 278,238 300,255C272,248 240,248 212,254Z" fill="#FFFFFF" fill-opacity="0.56" /><path d="M292,138L303,162L328,172L303,183L292,208L281,183L256,172L281,162Z" fill="#FFFFFF" fill-opacity="0.72" /><path d="M292,143C322,113 358,116 378,146C342,164 314,162 292,143Z" fill="url(#gradient12)" fill-opacity="1" /><path d="M236,234C232,286 238,340 256,394" fill="#000000" fill-opacity="0" stroke="#FFFFFF" stroke-opacity="0.36" stroke-width="7" stroke-linecap="round" /><path d="M316,286C286,324 252,350 204,370" fill="#000000" fill-opacity="0" stroke="#FFFFFF" stroke-opacity="0.34" stroke-width="6" stroke-linecap="round" /><path d="M202,394C234,414 278,414 310,394C282,428 230,428 202,394Z" fill="#FFFFFF" fill-opacity="0.38" /></svg>
